# This file uses centimeters as units for non-parametric coordinates.

mtllib MortarBody_Mid.mtl
g default
v -8.372530 -5.948095 9.946819
v 8.122356 -5.948095 9.946819
v -5.307112 5.948096 7.084159
v 7.633147 5.948096 4.518228
v -10.948738 -5.948095 7.380889
v 10.698565 -5.948095 7.380889
v -7.883322 5.948096 4.518228
v 5.056936 5.948096 7.084159
v 4.612400 -4.114948 14.705858
v -4.879418 -4.114948 14.705858
v 2.430388 1.427798 13.463624
v -2.697403 1.427798 13.463624
v 4.612403 -4.114950 8.106408
v -4.879416 -4.114950 8.106407
v 2.430388 1.427798 7.920670
v -2.697402 1.427798 7.920669
v -4.062455 -5.948096 26.854021
v 4.250260 -5.948096 26.854023
v -7.864247 -5.948096 14.845721
v 8.052052 -5.948096 14.845721
v -2.395288 -2.497385 25.726654
v -4.672135 2.835169 12.607296
v 4.859938 2.835169 12.607297
v 10.698565 -5.948095 0.000000
v -10.948738 -5.948095 0.000000
v 7.633147 5.948096 0.000000
v -7.883322 5.948096 0.000000
v -8.372530 -5.948095 -9.946819
v -10.948738 -5.948095 -7.380889
v 10.698565 -5.948095 -7.380889
v 8.122356 -5.948095 -9.946819
v -7.883322 5.948096 -4.518228
v 7.633147 5.948096 -4.518228
v 5.056936 5.948096 -7.084159
v -5.307112 5.948096 -7.084159
v 4.612400 -4.114948 -14.705858
v -4.879418 -4.114948 -14.705858
v -4.879416 -4.114950 -8.106407
v 4.612403 -4.114950 -8.106408
v -2.697403 1.427798 -13.463624
v -2.697402 1.427798 -7.920669
v 2.430388 1.427798 -13.463624
v 2.430388 1.427798 -7.920670
v -4.062455 -5.948096 -26.854021
v -7.864247 -5.948096 -14.845721
v 8.052052 -5.948096 -14.845721
v -2.395288 -2.497385 -25.726654
v 4.250260 -5.948096 -26.854023
v 4.859938 2.835169 -12.607297
v -4.672135 2.835169 -12.607296
vt 0.093753 0.184435
vt 0.328863 0.184435
vt 0.300883 0.212304
vt 0.121733 0.215768
vt 0.295384 0.373202
vt 0.295301 0.422274
vt 0.126778 0.421991
vt 0.126860 0.372919
vt 0.267520 0.345241
vt 0.154957 0.348611
vt 0.410613 0.258059
vt 0.349662 0.376748
vt 0.306010 0.354331
vt 0.339303 0.221439
vt 0.116607 0.357795
vt 0.083314 0.224903
vt 0.011454 0.942665
vt 0.011454 0.839575
vt 0.083131 0.839575
vt 0.083130 0.942665
vt 0.024947 0.774878
vt 0.085148 0.774878
vt 0.024947 0.719186
vt 0.085148 0.719186
vt 0.011455 0.654489
vt 0.083131 0.654489
vt 0.237802 0.659432
vt 0.196513 0.529010
vt 0.369379 0.529013
vt 0.328086 0.659433
vt 0.255908 0.698860
vt 0.334702 0.852653
vt 0.231180 0.852651
vt 0.343010 0.670929
vt 0.415631 0.786816
vt 0.231184 0.430567
vt 0.334711 0.430568
vt 0.150254 0.786812
vt 0.222878 0.670927
vt 0.012003 0.258061
vt 0.072954 0.376751
vt 0.093753 0.104272
vt 0.328863 0.104272
vt 0.093753 0.184435
vt 0.121733 0.215768
vt 0.300883 0.212304
vt 0.328863 0.184435
vt 0.295384 0.373202
vt 0.126860 0.372919
vt 0.126778 0.421991
vt 0.295301 0.422274
vt 0.154957 0.348611
vt 0.267520 0.345241
vt 0.410613 0.258059
vt 0.339303 0.221439
vt 0.306010 0.354331
vt 0.349662 0.376748
vt 0.083314 0.224903
vt 0.116607 0.357795
vt 0.011454 0.942665
vt 0.083130 0.942665
vt 0.083131 0.839575
vt 0.011454 0.839575
vt 0.085148 0.774878
vt 0.024947 0.774878
vt 0.085148 0.719186
vt 0.024947 0.719186
vt 0.083131 0.654489
vt 0.011455 0.654489
vt 0.237802 0.659432
vt 0.369379 0.529013
vt 0.196513 0.529010
vt 0.255908 0.698860
vt 0.231180 0.852651
vt 0.334702 0.852653
vt 0.343010 0.670929
vt 0.415631 0.786816
vt 0.334711 0.430568
vt 0.231184 0.430567
vt 0.150254 0.786812
vt 0.222878 0.670927
vt 0.012003 0.258061
vt 0.072954 0.376751
vt 0.093753 0.104272
vt 0.328863 0.104272
vn 0.000000 -1.000000 0.000000
vn 0.000000 -1.000000 0.000000
vn 0.000000 -1.000000 0.000000
vn 0.000000 -1.000000 0.000000
vn 0.000000 -1.000000 0.000000
vn 0.000000 -1.000000 0.000000
vn 0.000000 1.000000 0.000000
vn 0.000000 1.000000 0.000000
vn 0.000000 1.000000 0.000000
vn 0.000000 1.000000 0.000000
vn 0.000000 1.000000 0.000000
vn 0.000000 1.000000 0.000000
vn 0.000000 0.233958 0.972247
vn 0.000000 0.233958 0.972247
vn 0.000000 0.233958 0.972247
vn 0.000000 0.233958 0.972247
vn 0.000000 0.233958 0.972247
vn 0.000000 0.233958 0.972247
vn 0.968367 0.249529 0.000000
vn 0.968367 0.249529 0.000000
vn 0.968367 0.249529 0.000000
vn 0.968367 0.249530 0.000000
vn 0.968367 0.249530 0.000000
vn 0.968367 0.249530 0.000000
vn 0.665587 0.332315 0.668252
vn 0.665587 0.332315 0.668252
vn 0.665587 0.332315 0.668252
vn 0.665586 0.332315 0.668253
vn 0.665586 0.332315 0.668253
vn 0.665586 0.332315 0.668253
vn -0.665587 0.332315 0.668253
vn -0.665587 0.332315 0.668253
vn -0.665587 0.332315 0.668253
vn -0.665587 0.332315 0.668252
vn -0.665587 0.332315 0.668252
vn -0.665587 0.332315 0.668252
vn 0.000000 -1.000000 0.000000
vn 0.000000 -1.000000 0.000000
vn 0.000000 -1.000000 0.000000
vn 0.000000 -1.000000 0.000000
vn 0.000000 -1.000000 0.000000
vn 0.000000 -1.000000 0.000000
vn -0.930494 0.366308 -0.000000
vn -0.930494 0.366308 -0.000000
vn -0.930494 0.366308 -0.000000
vn -0.930494 0.366307 -0.000000
vn -0.930494 0.366307 -0.000000
vn -0.930494 0.366307 -0.000000
vn 0.000000 1.000000 0.000000
vn 0.000000 1.000000 0.000000
vn 0.000000 1.000000 0.000000
vn 0.000000 1.000000 0.000000
vn 0.000000 1.000000 0.000000
vn 0.000000 1.000000 0.000000
vn 0.930494 0.366307 0.000000
vn 0.930494 0.366307 0.000000
vn 0.930494 0.366307 0.000000
vn 0.930494 0.366308 0.000000
vn 0.930494 0.366308 0.000000
vn 0.930494 0.366308 0.000000
vn 0.000000 -1.000000 0.000000
vn 0.000000 -1.000000 0.000000
vn 0.000000 -1.000000 0.000000
vn 0.000000 -1.000000 0.000000
vn 0.000000 -1.000000 0.000000
vn 0.000000 -1.000000 0.000000
vn 0.000000 0.926397 0.376548
vn 0.000000 0.926397 0.376548
vn 0.000000 0.926397 0.376548
vn 0.000000 0.926397 0.376548
vn 0.000000 0.926397 0.376548
vn 0.000000 0.926397 0.376548
vn 0.000000 0.310552 0.950556
vn 0.000000 0.310552 0.950556
vn 0.000000 0.310552 0.950556
vn 0.877912 0.389895 0.277944
vn 0.877912 0.389895 0.277944
vn 0.877912 0.389895 0.277944
vn 0.000000 -0.246957 -0.969027
vn 0.000000 -0.246957 -0.969027
vn 0.000000 -0.246957 -0.969027
vn 0.000000 -0.246957 -0.969027
vn 0.000000 -0.246957 -0.969027
vn 0.000000 -0.246957 -0.969027
vn -0.832092 0.488082 0.263438
vn -0.832092 0.488082 0.263438
vn -0.832092 0.488082 0.263438
vn -0.865400 0.393557 0.310156
vn -0.865400 0.393557 0.310156
vn -0.865400 0.393557 0.310156
vn -0.968367 0.249529 0.000000
vn -0.968367 0.249529 0.000000
vn -0.968367 0.249529 0.000000
vn -0.968367 0.249529 0.000000
vn -0.968367 0.249529 0.000000
vn -0.968367 0.249529 0.000000
vn 0.000000 1.000000 0.000000
vn 0.000000 1.000000 0.000000
vn 0.000000 1.000000 0.000000
vn 0.000000 1.000000 -0.000001
vn 0.000000 1.000000 -0.000001
vn 0.000000 1.000000 -0.000001
vn 0.000000 -1.000000 0.000000
vn 0.000000 -1.000000 0.000000
vn 0.000000 -1.000000 0.000000
vn 0.000000 -1.000000 0.000000
vn 0.000000 -1.000000 0.000000
vn 0.000000 -1.000000 0.000000
vn 0.000000 -1.000000 0.000000
vn 0.000000 -1.000000 0.000000
vn 0.000000 -1.000000 0.000000
vn 0.000000 -1.000000 0.000000
vn 0.000000 -1.000000 0.000000
vn 0.000000 -1.000000 0.000000
vn 0.000000 1.000000 0.000000
vn 0.000000 1.000000 0.000000
vn 0.000000 1.000000 0.000000
vn 0.000000 1.000000 0.000000
vn 0.000000 1.000000 0.000000
vn 0.000000 1.000000 0.000000
vn 0.000000 0.233958 -0.972247
vn 0.000000 0.233958 -0.972247
vn 0.000000 0.233958 -0.972247
vn 0.000000 0.233958 -0.972247
vn 0.000000 0.233958 -0.972247
vn 0.000000 0.233958 -0.972247
vn 0.968367 0.249530 0.000000
vn 0.968367 0.249530 0.000000
vn 0.968367 0.249530 0.000000
vn 0.968367 0.249529 0.000000
vn 0.968367 0.249529 0.000000
vn 0.968367 0.249529 0.000000
vn 0.665586 0.332315 -0.668253
vn 0.665586 0.332315 -0.668253
vn 0.665586 0.332315 -0.668253
vn 0.665587 0.332315 -0.668252
vn 0.665587 0.332315 -0.668252
vn 0.665587 0.332315 -0.668252
vn -0.665587 0.332315 -0.668252
vn -0.665587 0.332315 -0.668252
vn -0.665587 0.332315 -0.668252
vn -0.665587 0.332315 -0.668253
vn -0.665587 0.332315 -0.668253
vn -0.665587 0.332315 -0.668253
vn 0.000000 -1.000000 0.000000
vn 0.000000 -1.000000 0.000000
vn 0.000000 -1.000000 0.000000
vn 0.000000 -1.000000 0.000000
vn 0.000000 -1.000000 0.000000
vn 0.000000 -1.000000 0.000000
vn -0.930494 0.366307 0.000000
vn -0.930494 0.366307 0.000000
vn -0.930494 0.366307 0.000000
vn -0.930494 0.366308 0.000000
vn -0.930494 0.366308 0.000000
vn -0.930494 0.366308 0.000000
vn 0.000000 1.000000 0.000000
vn 0.000000 1.000000 0.000000
vn 0.000000 1.000000 0.000000
vn 0.000000 1.000000 0.000000
vn 0.000000 1.000000 0.000000
vn 0.000000 1.000000 0.000000
vn 0.930494 0.366308 0.000000
vn 0.930494 0.366308 0.000000
vn 0.930494 0.366308 0.000000
vn 0.930494 0.366307 0.000000
vn 0.930494 0.366307 0.000000
vn 0.930494 0.366307 0.000000
vn 0.000000 -1.000000 0.000000
vn 0.000000 -1.000000 0.000000
vn 0.000000 -1.000000 0.000000
vn 0.000000 -1.000000 0.000000
vn 0.000000 -1.000000 0.000000
vn 0.000000 -1.000000 0.000000
vn 0.000000 0.926397 -0.376548
vn 0.000000 0.926397 -0.376548
vn 0.000000 0.926397 -0.376548
vn 0.000000 0.926397 -0.376548
vn 0.000000 0.926397 -0.376548
vn 0.000000 0.926397 -0.376548
vn 0.000000 0.310552 -0.950556
vn 0.000000 0.310552 -0.950556
vn 0.000000 0.310552 -0.950556
vn 0.877912 0.389895 -0.277944
vn 0.877912 0.389895 -0.277944
vn 0.877912 0.389895 -0.277944
vn 0.000000 -0.246957 0.969027
vn 0.000000 -0.246957 0.969027
vn 0.000000 -0.246957 0.969027
vn 0.000000 -0.246957 0.969027
vn 0.000000 -0.246957 0.969027
vn 0.000000 -0.246957 0.969027
vn -0.865400 0.393557 -0.310156
vn -0.865400 0.393557 -0.310156
vn -0.865400 0.393557 -0.310156
vn -0.832092 0.488082 -0.263438
vn -0.832092 0.488082 -0.263438
vn -0.832092 0.488082 -0.263438
vn -0.968367 0.249529 0.000000
vn -0.968367 0.249529 0.000000
vn -0.968367 0.249529 0.000000
vn -0.968367 0.249529 0.000000
vn -0.968367 0.249529 0.000000
vn -0.968367 0.249529 0.000000
vn 0.000000 1.000000 0.000001
vn 0.000000 1.000000 0.000001
vn 0.000000 1.000000 0.000001
vn 0.000000 1.000000 0.000000
vn 0.000000 1.000000 0.000000
vn 0.000000 1.000000 0.000000
vn 0.000000 -1.000000 0.000000
vn 0.000000 -1.000000 0.000000
vn 0.000000 -1.000000 0.000000
vn 0.000000 -1.000000 0.000000
vn 0.000000 -1.000000 0.000000
vn 0.000000 -1.000000 0.000000
s off
g MortarBody:sci_fi_turret_4
usemtl MortarBody:lambert3SG
f 5/1/1 6/2/2 2/3/3
f 2/3/4 1/4/5 5/1/6
f 4/5/7 26/6/8 27/7/9
f 27/7/10 7/8/11 4/5/12
f 1/4/13 2/3/14 8/9/15
f 8/9/16 3/10/17 1/4/18
f 24/11/19 26/12/20 4/13/21
f 4/13/22 6/14/23 24/11/24
f 2/3/25 6/14/26 4/13/27
f 4/13/28 8/9/29 2/3/30
f 3/10/31 7/15/32 5/16/33
f 5/16/34 1/4/35 3/10/36
f 9/17/37 10/18/38 14/19/39
f 14/19/40 13/20/41 9/17/42
f 10/18/43 12/21/44 16/22/45
f 16/22/46 14/19/47 10/18/48
f 12/21/49 11/23/50 15/24/51
f 15/24/52 16/22/53 12/21/54
f 11/23/55 9/25/56 13/26/57
f 13/26/58 15/24/59 11/23/60
f 17/27/61 19/28/62 20/29/63
f 20/29/64 18/30/65 17/27/66
f 21/31/67 18/34/68 23/32/69
f 23/32/70 22/33/71 21/31/72
f 18/34/73 21/31/74 17/27/75
f 18/34/76 20/35/77 23/32/78
f 20/29/79 19/28/80 22/36/81
f 22/36/82 23/37/83 20/29/84
f 19/38/85 17/39/86 21/31/87
f 21/31/88 22/33/89 19/38/90
f 25/40/91 5/16/92 7/15/93
f 7/15/94 27/41/95 25/40/96
f 3/10/97 8/9/98 4/5/99
f 4/5/100 7/8/101 3/10/102
f 25/42/103 24/43/104 6/2/105
f 6/2/106 5/1/107 25/42/108
f 29/44/109 28/45/110 31/46/111
f 31/46/112 30/47/113 29/44/114
f 33/48/115 32/49/116 27/50/117
f 27/50/118 26/51/119 33/48/120
f 28/45/121 35/52/122 34/53/123
f 34/53/124 31/46/125 28/45/126
f 24/54/127 30/55/128 33/56/129
f 33/56/130 26/57/131 24/54/132
f 31/46/133 34/53/134 33/56/135
f 33/56/136 30/55/137 31/46/138
f 35/52/139 28/45/140 29/58/141
f 29/58/142 32/59/143 35/52/144
f 36/60/145 39/61/146 38/62/147
f 38/62/148 37/63/149 36/60/150
f 37/63/151 38/62/152 41/64/153
f 41/64/154 40/65/155 37/63/156
f 40/65/157 41/64/158 43/66/159
f 43/66/160 42/67/161 40/65/162
f 42/67/163 43/66/164 39/68/165
f 39/68/166 36/69/167 42/67/168
f 44/70/169 48/76/170 46/71/171
f 46/71/172 45/72/173 44/70/174
f 47/73/175 50/74/176 49/75/177
f 49/75/178 48/76/179 47/73/180
f 44/70/181 47/73/182 48/76/183
f 49/75/184 46/77/185 48/76/186
f 46/71/187 49/78/188 50/79/189
f 50/79/190 45/72/191 46/71/192
f 45/80/193 50/74/194 47/73/195
f 47/73/196 44/81/197 45/80/198
f 25/82/199 27/83/200 32/59/201
f 32/59/202 29/58/203 25/82/204
f 35/52/205 32/49/206 33/48/207
f 33/48/208 34/53/209 35/52/210
f 25/84/211 29/44/212 30/47/213
f 30/47/214 24/85/215 25/84/216
