# This file uses centimeters as units for non-parametric coordinates.

mtllib MortarHead_Low.mtl
g default
v 0.000000 -10.413490 5.916624
v 3.026440 -10.413490 5.105690
v -6.052087 -5.905514 0.000001
v 0.000000 -5.905514 5.916624
v 6.052085 -10.413490 -0.000001
v -12.106454 -6.059889 4.465051
v 10.325624 -6.059891 6.025422
v -12.106451 1.477821 4.465052
v 10.325624 5.482010 6.025422
v -0.609015 -6.059891 7.522414
v -0.609015 5.482010 7.522413
v 8.563885 -6.059891 7.522412
v 8.563884 5.482010 7.522411
v 0.348879 -3.890774 5.017805
v 14.246607 -3.890774 5.017804
v 6.281208 8.799587 5.017808
v 14.246607 8.799587 5.017804
v 24.611595 1.452896 2.228454
v 24.611591 8.799587 2.228451
v 1.155328 5.185753 2.957462
v 14.333756 5.185753 2.957466
v 4.027194 10.413490 2.957461
v 9.196479 10.413490 2.957461
v -0.609015 5.482010 -0.000003
v 0.348878 -3.890774 0.000002
v 14.246602 -3.890774 -0.000001
v 10.325624 -6.059891 -0.000001
v 6.281207 8.799587 0.000000
v 4.027192 10.413490 0.000001
v -12.106453 -6.059891 -0.000001
v -12.106453 1.477821 -0.000001
v 10.325624 5.482010 -0.000001
v 24.611599 1.452896 0.000000
v 24.611599 8.799587 0.000000
v 9.196477 10.413490 0.000000
v 14.333755 5.185753 -0.000001
v 1.155328 5.185753 0.000000
v -6.052087 -10.413490 0.000000
v -3.026439 -10.413490 -5.105693
v -3.026439 -5.905514 -5.105693
v 0.000001 -5.905514 -5.916620
v 3.026441 -10.413490 -5.105689
v 6.052085 -5.905514 -0.000001
v -12.106460 -6.059889 -4.465044
v -0.609015 -6.059891 -7.522416
v -12.106459 1.477821 -4.465042
v -0.609016 5.482010 -7.522414
v 10.325624 -6.059891 -6.025424
v 10.325624 5.482010 -6.025424
v 8.563885 -6.059891 -7.522410
v 8.563885 5.482010 -7.522411
v 0.348874 -3.890774 -5.017807
v 14.246603 -3.890774 -5.017803
v 6.281207 8.799587 -5.017806
v 14.246603 8.799587 -5.017803
v 24.611599 1.452896 -2.228450
v 24.611599 8.799587 -2.228450
v 4.027194 10.413490 -2.957462
v 9.196478 10.413490 -2.957464
v 1.155329 5.185753 -2.957461
v 14.333751 5.185753 -2.957461
vt 0.141715 0.764862
vt 0.092754 0.664203
vt 0.141714 0.798891
vt 0.092754 0.764862
vt 0.141714 0.865521
vt 0.092753 0.865521
vt 0.141715 0.664203
vt 0.595341 0.061641
vt 0.595321 0.013146
vt 0.838954 0.013046
vt 0.720227 0.094795
vt 0.534142 0.061666
vt 0.401926 0.094926
vt 0.401892 0.013226
vt 0.534122 0.013172
vt 0.595394 0.190853
vt 0.490706 0.190897
vt 0.595472 0.381030
vt 0.490784 0.381073
vt 0.490757 0.315632
vt 0.595445 0.315588
vt 0.283159 0.078717
vt 0.283132 0.013275
vt 0.595435 0.290480
vt 0.490747 0.290523
vt 0.422313 0.777044
vt 0.422318 0.626102
vt 0.476816 0.626104
vt 0.476811 0.777046
vt 0.476825 0.327752
vt 0.422330 0.241239
vt 0.476828 0.241240
vt 0.714044 0.557495
vt 0.563102 0.557490
vt 0.563105 0.440328
vt 0.649617 0.440331
vt 0.422322 0.499448
vt 0.422324 0.440324
vt 0.446527 0.440325
vt 0.446525 0.499449
vt 0.188927 0.060903
vt 0.188927 0.093024
vt 0.132784 0.093024
vt 0.132784 0.060903
vt 0.101593 0.004125
vt 0.244723 0.004125
vt 0.268532 0.093024
vt 0.268532 0.060903
vt 0.838981 0.078487
vt 0.476832 0.107531
vt 0.422334 0.107530
vt 0.068003 0.060903
vt 0.068003 0.093024
vt 0.302300 0.094967
vt 0.819853 0.094754
vt 0.141715 0.664203
vt 0.092754 0.730832
vt 0.141715 0.730833
vt 0.092754 0.764862
vt 0.141714 0.798891
vt 0.092753 0.865521
vt 0.141714 0.865521
vt 0.092754 0.664203
vt 0.595341 0.061641
vt 0.720227 0.094795
vt 0.838954 0.013046
vt 0.595321 0.013146
vt 0.534142 0.061666
vt 0.534122 0.013172
vt 0.401892 0.013226
vt 0.401926 0.094926
vt 0.595394 0.190853
vt 0.490706 0.190897
vt 0.595472 0.381030
vt 0.595445 0.315588
vt 0.490757 0.315632
vt 0.490784 0.381073
vt 0.283159 0.078717
vt 0.283132 0.013275
vt 0.595435 0.290480
vt 0.490747 0.290523
vt 0.422313 0.777044
vt 0.476811 0.777046
vt 0.476816 0.626104
vt 0.422318 0.626102
vt 0.476825 0.327752
vt 0.476828 0.241240
vt 0.422330 0.241239
vt 0.714044 0.557495
vt 0.649617 0.440331
vt 0.563105 0.440328
vt 0.563102 0.557490
vt 0.422322 0.499448
vt 0.446525 0.499449
vt 0.446527 0.440325
vt 0.422324 0.440324
vt 0.188927 0.060903
vt 0.132784 0.060903
vt 0.132784 0.093024
vt 0.188927 0.093024
vt 0.101593 0.004125
vt 0.244723 0.004125
vt 0.268532 0.093024
vt 0.268532 0.060903
vt 0.838981 0.078487
vt 0.476832 0.107531
vt 0.422334 0.107530
vt 0.068003 0.060903
vt 0.068003 0.093024
vt 0.302300 0.094967
vt 0.819853 0.094754
vn -0.707107 0.000000 0.707107
vn -0.707107 0.000000 0.707107
vn -0.707107 0.000000 0.707107
vn -0.707107 0.000000 0.707107
vn -0.707107 0.000000 0.707107
vn -0.707107 0.000000 0.707107
vn 0.258819 0.000000 0.965926
vn 0.258819 0.000000 0.965926
vn 0.258819 0.000000 0.965926
vn 0.707107 0.000000 0.707106
vn 0.707107 0.000000 0.707107
vn 0.707107 0.000000 0.707107
vn 0.962887 0.000000 0.269905
vn 0.962887 0.000000 0.269905
vn 0.962887 0.000000 0.269905
vn 0.000000 -1.000000 0.000000
vn 0.000000 -1.000000 0.000000
vn 0.000000 -1.000000 0.000000
vn 0.000000 -1.000000 0.000000
vn 0.000000 -1.000000 0.000000
vn 0.000000 -1.000000 0.000000
vn -0.328893 0.944367 0.000000
vn -0.328893 0.944367 0.000000
vn -0.328893 0.944367 0.000000
vn -0.328893 0.944367 0.000000
vn -0.328893 0.944367 0.000000
vn -0.328893 0.944367 0.000000
vn -0.256987 0.000000 0.966415
vn -0.256987 0.000000 0.966415
vn -0.256987 0.000000 0.966415
vn -0.256986 0.000000 0.966415
vn -0.256986 0.000000 0.966415
vn -0.256986 0.000000 0.966415
vn 1.000000 0.000000 0.000000
vn 1.000000 0.000000 0.000000
vn 1.000000 0.000000 0.000000
vn 1.000000 0.000000 0.000000
vn 1.000000 0.000000 0.000000
vn 1.000000 0.000000 0.000000
vn 0.000000 1.000000 0.000000
vn 0.000000 1.000000 0.000000
vn 0.000000 1.000000 0.000000
vn 0.000000 1.000000 0.000000
vn 0.000000 1.000000 0.000000
vn 0.000000 1.000000 0.000000
vn 0.000000 0.000000 1.000000
vn 0.000000 0.000000 1.000000
vn 0.000000 0.000000 1.000000
vn 0.000000 0.000000 1.000000
vn 0.000000 0.000000 1.000000
vn 0.000000 0.000000 1.000000
vn 0.647527 0.000000 0.762043
vn 0.647527 0.000000 0.762043
vn 0.647527 0.000000 0.762043
vn 0.647526 0.000000 0.762043
vn 0.647526 0.000000 0.762043
vn 0.647526 0.000000 0.762043
vn 0.000000 -1.000000 -0.000001
vn 0.000000 -1.000000 -0.000001
vn 0.000000 -1.000000 -0.000001
vn 0.000000 -1.000000 0.000000
vn 0.000000 -1.000000 0.000000
vn 0.000000 -1.000000 0.000000
vn 0.000000 1.000000 0.000000
vn 0.000000 1.000000 0.000000
vn 0.000000 1.000000 0.000000
vn 0.000000 0.000000 1.000000
vn 0.000000 0.000000 1.000000
vn 0.000000 0.000000 1.000000
vn 0.000000 0.000000 1.000000
vn 0.000000 0.000000 1.000000
vn 0.000000 0.000000 1.000000
vn 1.000000 0.000000 0.000000
vn 1.000000 0.000000 0.000000
vn 1.000000 0.000000 0.000000
vn 1.000000 0.000000 -0.000001
vn 1.000000 0.000000 -0.000001
vn 1.000000 0.000000 -0.000001
vn 0.458236 -0.888831 -0.000001
vn 0.458236 -0.888831 -0.000001
vn 0.458236 -0.888831 -0.000001
vn 0.458236 -0.888831 -0.000001
vn 0.458236 -0.888831 -0.000001
vn 0.458236 -0.888831 -0.000001
vn 0.259868 0.000000 0.965644
vn 0.259868 0.000000 0.965644
vn 0.259868 0.000000 0.965644
vn 0.259868 0.000000 0.965644
vn 0.259868 0.000000 0.965644
vn 0.259868 0.000000 0.965644
vn 0.000000 1.000000 0.000000
vn 0.000000 1.000000 0.000000
vn 0.000000 1.000000 0.000000
vn 0.000000 1.000000 0.000000
vn 0.000000 1.000000 0.000000
vn 0.000000 1.000000 0.000000
vn 0.000000 0.000000 1.000000
vn 0.000000 0.000000 1.000000
vn 0.000000 0.000000 1.000000
vn 0.000000 0.000000 1.000000
vn 0.000000 0.000000 1.000000
vn 0.000000 0.000000 1.000000
vn 0.713251 0.700909 0.000000
vn 0.713251 0.700909 0.000000
vn 0.713251 0.700909 0.000000
vn 0.713251 0.700909 0.000000
vn 0.713251 0.700909 0.000000
vn 0.713251 0.700909 0.000000
vn -1.000000 0.000000 0.000000
vn -1.000000 0.000000 0.000000
vn -1.000000 0.000000 0.000000
vn -1.000000 0.000000 -0.000000
vn -1.000000 0.000000 -0.000000
vn -1.000000 0.000000 -0.000000
vn 0.000000 -1.000000 0.000000
vn 0.000000 -1.000000 0.000000
vn 0.000000 -1.000000 0.000000
vn -0.905905 0.423481 0.000000
vn -0.905905 0.423481 0.000000
vn -0.905905 0.423481 0.000000
vn -0.905905 0.423481 0.000000
vn -0.905905 0.423481 0.000000
vn -0.905905 0.423481 0.000000
vn 0.000000 1.000000 0.000000
vn 0.000000 1.000000 0.000000
vn 0.000000 1.000000 0.000000
vn 0.000000 1.000000 0.000000
vn 0.000000 1.000000 0.000000
vn 0.000000 1.000000 0.000000
vn -0.876456 0.481482 0.000000
vn -0.876456 0.481482 0.000000
vn -0.876456 0.481482 0.000000
vn -0.876456 0.481482 0.000000
vn -0.876456 0.481482 0.000000
vn -0.876456 0.481482 0.000000
vn 0.000000 1.000000 -0.000004
vn 0.000000 1.000000 -0.000004
vn 0.000000 1.000000 -0.000004
vn 0.000000 -1.000000 0.000000
vn 0.000000 -1.000000 0.000000
vn 0.000000 -1.000000 0.000000
vn -0.707107 0.000000 -0.707107
vn -0.707107 0.000000 -0.707107
vn -0.707107 0.000000 -0.707107
vn -0.258819 0.000000 -0.965926
vn -0.258819 0.000000 -0.965926
vn -0.258819 0.000000 -0.965926
vn -0.258819 0.000000 -0.965926
vn -0.258819 0.000000 -0.965926
vn -0.258819 0.000000 -0.965926
vn 0.707107 0.000000 -0.707107
vn 0.707107 0.000000 -0.707107
vn 0.707107 0.000000 -0.707106
vn 0.707107 0.000000 -0.707106
vn 0.707107 0.000000 -0.707106
vn 0.707107 0.000000 -0.707106
vn -0.962887 0.000000 -0.269905
vn -0.962887 0.000000 -0.269905
vn -0.962887 0.000000 -0.269905
vn 0.000000 -1.000000 0.000000
vn 0.000000 -1.000000 0.000000
vn 0.000000 -1.000000 0.000000
vn 0.000000 -1.000000 0.000000
vn 0.000000 -1.000000 0.000000
vn 0.000000 -1.000000 0.000000
vn -0.328893 0.944367 0.000000
vn -0.328893 0.944367 0.000000
vn -0.328893 0.944367 0.000000
vn -0.328893 0.944367 0.000000
vn -0.328893 0.944367 0.000000
vn -0.328893 0.944367 0.000000
vn -0.256986 0.000000 -0.966415
vn -0.256986 0.000000 -0.966415
vn -0.256986 0.000000 -0.966415
vn -0.256987 0.000000 -0.966415
vn -0.256987 0.000000 -0.966415
vn -0.256987 0.000000 -0.966415
vn 1.000000 0.000000 0.000000
vn 1.000000 0.000000 0.000000
vn 1.000000 0.000000 0.000000
vn 1.000000 0.000000 0.000000
vn 1.000000 0.000000 0.000000
vn 1.000000 0.000000 0.000000
vn 0.000000 1.000000 0.000000
vn 0.000000 1.000000 0.000000
vn 0.000000 1.000000 0.000000
vn 0.000000 1.000000 0.000000
vn 0.000000 1.000000 0.000000
vn 0.000000 1.000000 0.000000
vn 0.000000 0.000000 -1.000000
vn 0.000000 0.000000 -1.000000
vn 0.000000 0.000000 -1.000000
vn 0.000000 0.000000 -1.000000
vn 0.000000 0.000000 -1.000000
vn 0.000000 0.000000 -1.000000
vn 0.647526 0.000000 -0.762043
vn 0.647526 0.000000 -0.762043
vn 0.647526 0.000000 -0.762043
vn 0.647527 0.000000 -0.762043
vn 0.647527 0.000000 -0.762043
vn 0.647527 0.000000 -0.762043
vn 0.000000 -1.000000 0.000000
vn 0.000000 -1.000000 0.000000
vn 0.000000 -1.000000 0.000000
vn 0.000000 -1.000000 0.000001
vn 0.000000 -1.000000 0.000001
vn 0.000000 -1.000000 0.000001
vn 0.000000 1.000000 0.000000
vn 0.000000 1.000000 0.000000
vn 0.000000 1.000000 0.000000
vn 0.000000 0.000000 -1.000000
vn 0.000000 0.000000 -1.000000
vn 0.000000 0.000000 -1.000000
vn 0.000000 0.000000 -1.000000
vn 0.000000 0.000000 -1.000000
vn 0.000000 0.000000 -1.000000
vn 1.000000 0.000000 0.000001
vn 1.000000 0.000000 0.000001
vn 1.000000 0.000000 0.000001
vn 1.000000 0.000000 0.000000
vn 1.000000 0.000000 0.000000
vn 1.000000 0.000000 0.000000
vn 0.458236 -0.888831 0.000001
vn 0.458236 -0.888831 0.000001
vn 0.458236 -0.888831 0.000001
vn 0.458236 -0.888831 0.000001
vn 0.458236 -0.888831 0.000001
vn 0.458236 -0.888831 0.000001
vn 0.259868 0.000000 -0.965644
vn 0.259868 0.000000 -0.965644
vn 0.259868 0.000000 -0.965644
vn 0.259868 0.000000 -0.965644
vn 0.259868 0.000000 -0.965644
vn 0.259868 0.000000 -0.965644
vn 0.000000 1.000000 0.000000
vn 0.000000 1.000000 0.000000
vn 0.000000 1.000000 0.000000
vn 0.000000 1.000000 0.000000
vn 0.000000 1.000000 0.000000
vn 0.000000 1.000000 0.000000
vn 0.000000 0.000000 -1.000000
vn 0.000000 0.000000 -1.000000
vn 0.000000 0.000000 -1.000000
vn 0.000000 0.000000 -1.000000
vn 0.000000 0.000000 -1.000000
vn 0.000000 0.000000 -1.000000
vn 0.713251 0.700909 0.000000
vn 0.713251 0.700909 0.000000
vn 0.713251 0.700909 0.000000
vn 0.713251 0.700909 0.000000
vn 0.713251 0.700909 0.000000
vn 0.713251 0.700909 0.000000
vn -1.000000 0.000000 0.000000
vn -1.000000 0.000000 0.000000
vn -1.000000 0.000000 0.000000
vn -1.000000 0.000000 0.000000
vn -1.000000 0.000000 0.000000
vn -1.000000 0.000000 0.000000
vn 0.000000 -1.000000 0.000000
vn 0.000000 -1.000000 0.000000
vn 0.000000 -1.000000 0.000000
vn -0.905905 0.423481 0.000000
vn -0.905905 0.423481 0.000000
vn -0.905905 0.423481 0.000000
vn -0.905905 0.423481 0.000000
vn -0.905905 0.423481 0.000000
vn -0.905905 0.423481 0.000000
vn 0.000000 1.000000 0.000000
vn 0.000000 1.000000 0.000000
vn 0.000000 1.000000 0.000000
vn 0.000000 1.000000 0.000000
vn 0.000000 1.000000 0.000000
vn 0.000000 1.000000 0.000000
vn -0.876456 0.481482 0.000000
vn -0.876456 0.481482 0.000000
vn -0.876456 0.481482 0.000000
vn -0.876456 0.481482 0.000000
vn -0.876456 0.481482 0.000000
vn -0.876456 0.481482 0.000000
vn 0.000000 1.000000 0.000002
vn 0.000000 1.000000 0.000002
vn 0.000000 1.000000 0.000002
vn 0.000000 -1.000000 0.000001
vn 0.000000 -1.000000 0.000001
vn 0.000000 -1.000000 0.000001
s off
g MortarHead:sci_fi_turret_4
usemtl initialShadingGroup
f 38/7/1 1/1/2 4/4/3
f 4/4/4 3/2/5 38/7/6
f 1/1/7 2/3/8 4/4/9
f 43/6/10 4/4/11 2/3/12
f 43/6/13 2/3/14 5/5/15
f 6/8/16 30/9/17 27/10/18
f 27/10/19 10/11/20 6/8/21
f 8/12/22 11/13/23 24/14/24
f 24/14/25 31/15/26 8/12/27
f 10/16/28 11/17/29 8/12/30
f 8/12/31 6/8/32 10/16/33
f 27/18/34 32/19/35 9/20/36
f 9/20/37 7/21/38 27/18/39
f 9/22/40 32/23/41 24/14/42
f 24/14/43 11/13/44 9/22/45
f 12/24/46 13/25/47 11/17/48
f 11/17/49 10/16/50 12/24/51
f 12/24/52 7/21/53 9/20/54
f 9/20/55 13/25/56 12/24/57
f 25/26/58 26/27/59 15/28/60
f 15/28/61 14/29/62 25/26/63
f 28/31/64 16/32/65 17/30/66
f 14/33/67 15/34/68 17/35/69
f 17/35/70 16/36/71 14/33/72
f 33/37/73 34/38/74 19/39/75
f 19/39/76 18/40/77 33/37/78
f 26/27/79 33/37/80 18/40/81
f 18/40/82 15/28/83 26/27/84
f 17/35/85 15/34/86 18/40/87
f 18/40/88 19/39/89 17/35/90
f 23/41/91 35/42/92 29/43/93
f 29/43/94 22/44/95 23/41/96
f 20/45/97 21/46/98 23/41/99
f 23/41/100 22/44/101 20/45/102
f 36/47/103 35/42/104 23/41/105
f 23/41/106 21/48/107 36/47/108
f 6/8/109 8/12/110 31/15/111
f 31/15/112 30/9/113 6/8/114
f 7/49/115 10/11/116 27/10/117
f 14/50/118 16/32/119 28/31/120
f 28/31/121 25/51/122 14/50/123
f 28/31/124 17/30/125 19/39/126
f 19/39/127 34/38/128 28/31/129
f 20/52/130 22/44/131 29/43/132
f 29/43/133 37/53/134 20/52/135
f 11/13/136 13/54/137 9/22/138
f 7/49/139 12/55/140 10/11/141
f 40/57/142 39/58/143 38/56/144
f 39/58/145 40/57/146 41/59/147
f 41/59/148 42/60/149 39/58/150
f 42/60/151 41/59/152 43/61/153
f 43/61/154 5/62/155 42/60/156
f 3/63/157 40/57/158 38/56/159
f 44/64/160 45/65/161 27/66/162
f 27/66/163 30/67/164 44/64/165
f 46/68/166 31/69/167 24/70/168
f 24/70/169 47/71/170 46/68/171
f 45/72/172 44/64/173 46/68/174
f 46/68/175 47/73/176 45/72/177
f 27/74/178 48/75/179 49/76/180
f 49/76/181 32/77/182 27/74/183
f 49/78/184 47/71/185 24/70/186
f 24/70/187 32/79/188 49/78/189
f 50/80/190 45/72/191 47/73/192
f 47/73/193 51/81/194 50/80/195
f 50/80/196 51/81/197 49/76/198
f 49/76/199 48/75/200 50/80/201
f 25/82/202 52/83/203 53/84/204
f 53/84/205 26/85/206 25/82/207
f 55/86/208 54/87/209 28/88/210
f 52/89/211 54/90/212 55/91/213
f 55/91/214 53/92/215 52/89/216
f 33/93/217 56/94/218 57/95/219
f 57/95/220 34/96/221 33/93/222
f 26/85/223 53/84/224 56/94/225
f 56/94/226 33/93/227 26/85/228
f 55/91/229 57/95/230 56/94/231
f 56/94/232 53/92/233 55/91/234
f 59/97/235 58/98/236 29/99/237
f 29/99/238 35/100/239 59/97/240
f 60/101/241 58/98/242 59/97/243
f 59/97/244 61/102/245 60/101/246
f 36/103/247 61/104/248 59/97/249
f 59/97/250 35/100/251 36/103/252
f 44/64/253 30/67/254 31/69/255
f 31/69/256 46/68/257 44/64/258
f 27/66/259 45/65/260 48/105/261
f 52/106/262 25/107/263 28/88/264
f 28/88/265 54/87/266 52/106/267
f 28/88/268 34/96/269 57/95/270
f 57/95/271 55/86/272 28/88/273
f 60/108/274 37/109/275 29/99/276
f 29/99/277 58/98/278 60/108/279
f 47/71/280 49/78/281 51/110/282
f 48/105/283 45/65/284 50/111/285
