# This file uses centimeters as units for non-parametric coordinates.

mtllib MortarBody_Low.mtl
g default
v -8.372530 -5.948095 9.946819
v 8.122356 -5.948095 9.946819
v -7.883322 5.948096 4.518228
v 7.633147 5.948096 4.518228
v -10.948738 -5.948095 7.380889
v 10.698565 -5.948095 7.380889
v 5.056936 5.948096 7.084159
v 4.612400 -4.114948 14.705858
v -4.879418 -4.114948 14.705858
v 2.430388 1.427798 13.463624
v -2.697403 1.427798 13.463624
v 4.612403 -4.114950 8.106408
v -4.879416 -4.114950 8.106407
v 2.430388 1.427798 7.920670
v -2.697402 1.427798 7.920669
v -4.062455 -5.948096 26.854021
v 4.250260 -5.948096 26.854023
v -7.864247 -5.948096 14.845721
v 8.052052 -5.948096 14.845721
v -2.395288 -2.497385 25.726654
v -4.672135 2.835169 12.607296
v 4.859938 2.835169 12.607297
v 10.698565 -5.948095 0.000000
v -10.948738 -5.948095 0.000000
v 7.633147 5.948096 0.000000
v -7.883322 5.948096 0.000000
v -8.372530 -5.948095 -9.946819
v -10.948738 -5.948095 -7.380889
v 10.698565 -5.948095 -7.380889
v 8.122356 -5.948095 -9.946819
v -7.883322 5.948096 -4.518228
v 7.633147 5.948096 -4.518228
v 5.056936 5.948096 -7.084159
v 4.612400 -4.114948 -14.705858
v -4.879418 -4.114948 -14.705858
v -4.879416 -4.114950 -8.106407
v 4.612403 -4.114950 -8.106408
v -2.697403 1.427798 -13.463624
v -2.697402 1.427798 -7.920669
v 2.430388 1.427798 -13.463624
v 2.430388 1.427798 -7.920670
v -4.062455 -5.948096 -26.854021
v -7.864247 -5.948096 -14.845721
v 8.052052 -5.948096 -14.845721
v -2.395288 -2.497385 -25.726654
v 4.250260 -5.948096 -26.854023
v 4.859938 2.835169 -12.607297
v -4.672135 2.835169 -12.607296
vt 0.093753 0.184435
vt 0.328863 0.184435
vt 0.300883 0.212304
vt 0.121733 0.215768
vt 0.295384 0.373202
vt 0.295301 0.422274
vt 0.126778 0.421991
vt 0.267520 0.345241
vt 0.126860 0.372919
vt 0.410613 0.258059
vt 0.349662 0.376748
vt 0.306010 0.354331
vt 0.339303 0.221439
vt 0.083314 0.224903
vt 0.011454 0.942665
vt 0.011454 0.839575
vt 0.083131 0.839575
vt 0.083130 0.942665
vt 0.024947 0.774878
vt 0.085148 0.774878
vt 0.024947 0.719186
vt 0.085148 0.719186
vt 0.011455 0.654489
vt 0.083131 0.654489
vt 0.237802 0.659432
vt 0.196513 0.529010
vt 0.369379 0.529013
vt 0.328086 0.659433
vt 0.255908 0.698860
vt 0.334702 0.852653
vt 0.231180 0.852651
vt 0.343010 0.670929
vt 0.415631 0.786816
vt 0.231184 0.430567
vt 0.334711 0.430568
vt 0.150254 0.786812
vt 0.222878 0.670927
vt 0.012003 0.258061
vt 0.072954 0.376751
vt 0.093753 0.104272
vt 0.328863 0.104272
vt 0.093753 0.184435
vt 0.121733 0.215768
vt 0.300883 0.212304
vt 0.328863 0.184435
vt 0.295384 0.373202
vt 0.126860 0.372919
vt 0.126778 0.421991
vt 0.295301 0.422274
vt 0.267520 0.345241
vt 0.410613 0.258059
vt 0.339303 0.221439
vt 0.306010 0.354331
vt 0.349662 0.376748
vt 0.083314 0.224903
vt 0.116607 0.357795
vt 0.011454 0.942665
vt 0.083130 0.942665
vt 0.083131 0.839575
vt 0.011454 0.839575
vt 0.085148 0.774878
vt 0.024947 0.774878
vt 0.085148 0.719186
vt 0.024947 0.719186
vt 0.083131 0.654489
vt 0.011455 0.654489
vt 0.237802 0.659432
vt 0.369379 0.529013
vt 0.196513 0.529010
vt 0.255908 0.698860
vt 0.231180 0.852651
vt 0.334702 0.852653
vt 0.343010 0.670929
vt 0.415631 0.786816
vt 0.334711 0.430568
vt 0.231184 0.430567
vt 0.150254 0.786812
vt 0.222878 0.670927
vt 0.012003 0.258061
vt 0.072954 0.376751
vt 0.093753 0.104272
vt 0.328863 0.104272
vn 0.000000 -1.000000 0.000000
vn 0.000000 -1.000000 0.000000
vn 0.000000 -1.000000 0.000000
vn 0.000000 -1.000000 0.000000
vn 0.000000 -1.000000 0.000000
vn 0.000000 -1.000000 0.000000
vn 0.000000 1.000000 0.000000
vn 0.000000 1.000000 0.000000
vn 0.000000 1.000000 0.000000
vn 0.000000 1.000000 0.000000
vn 0.000000 1.000000 0.000000
vn 0.000000 1.000000 0.000000
vn 0.000000 0.233958 0.972247
vn 0.000000 0.233958 0.972247
vn 0.000000 0.233958 0.972247
vn 0.000000 0.233958 0.972247
vn 0.000000 0.233958 0.972247
vn 0.000000 0.233958 0.972247
vn 0.968367 0.249529 0.000000
vn 0.968367 0.249529 0.000000
vn 0.968367 0.249529 0.000000
vn 0.968367 0.249530 0.000000
vn 0.968367 0.249530 0.000000
vn 0.968367 0.249530 0.000000
vn 0.665587 0.332315 0.668252
vn 0.665587 0.332315 0.668252
vn 0.665587 0.332315 0.668252
vn 0.665586 0.332315 0.668253
vn 0.665586 0.332315 0.668253
vn 0.665586 0.332315 0.668253
vn -0.665587 0.332315 0.668252
vn -0.665587 0.332315 0.668252
vn -0.665587 0.332315 0.668252
vn 0.000000 -1.000000 0.000000
vn 0.000000 -1.000000 0.000000
vn 0.000000 -1.000000 0.000000
vn 0.000000 -1.000000 0.000000
vn 0.000000 -1.000000 0.000000
vn 0.000000 -1.000000 0.000000
vn -0.930494 0.366308 -0.000000
vn -0.930494 0.366308 -0.000000
vn -0.930494 0.366308 -0.000000
vn -0.930494 0.366307 -0.000000
vn -0.930494 0.366307 -0.000000
vn -0.930494 0.366307 -0.000000
vn 0.000000 1.000000 0.000000
vn 0.000000 1.000000 0.000000
vn 0.000000 1.000000 0.000000
vn 0.000000 1.000000 0.000000
vn 0.000000 1.000000 0.000000
vn 0.000000 1.000000 0.000000
vn 0.930494 0.366307 0.000000
vn 0.930494 0.366307 0.000000
vn 0.930494 0.366307 0.000000
vn 0.930494 0.366308 0.000000
vn 0.930494 0.366308 0.000000
vn 0.930494 0.366308 0.000000
vn 0.000000 -1.000000 0.000000
vn 0.000000 -1.000000 0.000000
vn 0.000000 -1.000000 0.000000
vn 0.000000 -1.000000 0.000000
vn 0.000000 -1.000000 0.000000
vn 0.000000 -1.000000 0.000000
vn 0.000000 0.926397 0.376548
vn 0.000000 0.926397 0.376548
vn 0.000000 0.926397 0.376548
vn 0.000000 0.926397 0.376548
vn 0.000000 0.926397 0.376548
vn 0.000000 0.926397 0.376548
vn 0.000000 0.310552 0.950556
vn 0.000000 0.310552 0.950556
vn 0.000000 0.310552 0.950556
vn 0.877912 0.389895 0.277944
vn 0.877912 0.389895 0.277944
vn 0.877912 0.389895 0.277944
vn 0.000000 -0.246957 -0.969027
vn 0.000000 -0.246957 -0.969027
vn 0.000000 -0.246957 -0.969027
vn 0.000000 -0.246957 -0.969027
vn 0.000000 -0.246957 -0.969027
vn 0.000000 -0.246957 -0.969027
vn -0.832092 0.488082 0.263438
vn -0.832092 0.488082 0.263438
vn -0.832092 0.488082 0.263438
vn -0.865400 0.393557 0.310156
vn -0.865400 0.393557 0.310156
vn -0.865400 0.393557 0.310156
vn -0.968367 0.249529 0.000000
vn -0.968367 0.249529 0.000000
vn -0.968367 0.249529 0.000000
vn -0.968367 0.249529 0.000000
vn -0.968367 0.249529 0.000000
vn -0.968367 0.249529 0.000000
vn 0.000000 1.000000 0.000000
vn 0.000000 1.000000 0.000000
vn 0.000000 1.000000 0.000000
vn 0.000000 -1.000000 0.000000
vn 0.000000 -1.000000 0.000000
vn 0.000000 -1.000000 0.000000
vn 0.000000 -1.000000 0.000000
vn 0.000000 -1.000000 0.000000
vn 0.000000 -1.000000 0.000000
vn 0.000000 -1.000000 0.000000
vn 0.000000 -1.000000 0.000000
vn 0.000000 -1.000000 0.000000
vn 0.000000 -1.000000 0.000000
vn 0.000000 -1.000000 0.000000
vn 0.000000 -1.000000 0.000000
vn 0.000000 1.000000 0.000000
vn 0.000000 1.000000 0.000000
vn 0.000000 1.000000 0.000000
vn 0.000000 1.000000 0.000000
vn 0.000000 1.000000 0.000000
vn 0.000000 1.000000 0.000000
vn 0.000000 0.233958 -0.972247
vn 0.000000 0.233958 -0.972247
vn 0.000000 0.233958 -0.972247
vn 0.000000 0.233958 -0.972247
vn 0.000000 0.233958 -0.972247
vn 0.000000 0.233958 -0.972247
vn 0.968367 0.249530 0.000000
vn 0.968367 0.249530 0.000000
vn 0.968367 0.249530 0.000000
vn 0.968367 0.249529 0.000000
vn 0.968367 0.249529 0.000000
vn 0.968367 0.249529 0.000000
vn 0.665586 0.332315 -0.668253
vn 0.665586 0.332315 -0.668253
vn 0.665586 0.332315 -0.668253
vn 0.665587 0.332315 -0.668252
vn 0.665587 0.332315 -0.668252
vn 0.665587 0.332315 -0.668252
vn -0.665587 0.332315 -0.668252
vn -0.665587 0.332315 -0.668252
vn -0.665587 0.332315 -0.668252
vn 0.000000 -1.000000 0.000000
vn 0.000000 -1.000000 0.000000
vn 0.000000 -1.000000 0.000000
vn 0.000000 -1.000000 0.000000
vn 0.000000 -1.000000 0.000000
vn 0.000000 -1.000000 0.000000
vn -0.930494 0.366307 0.000000
vn -0.930494 0.366307 0.000000
vn -0.930494 0.366307 0.000000
vn -0.930494 0.366308 0.000000
vn -0.930494 0.366308 0.000000
vn -0.930494 0.366308 0.000000
vn 0.000000 1.000000 0.000000
vn 0.000000 1.000000 0.000000
vn 0.000000 1.000000 0.000000
vn 0.000000 1.000000 0.000000
vn 0.000000 1.000000 0.000000
vn 0.000000 1.000000 0.000000
vn 0.930494 0.366308 0.000000
vn 0.930494 0.366308 0.000000
vn 0.930494 0.366308 0.000000
vn 0.930494 0.366307 0.000000
vn 0.930494 0.366307 0.000000
vn 0.930494 0.366307 0.000000
vn 0.000000 -1.000000 0.000000
vn 0.000000 -1.000000 0.000000
vn 0.000000 -1.000000 0.000000
vn 0.000000 -1.000000 0.000000
vn 0.000000 -1.000000 0.000000
vn 0.000000 -1.000000 0.000000
vn 0.000000 0.926397 -0.376548
vn 0.000000 0.926397 -0.376548
vn 0.000000 0.926397 -0.376548
vn 0.000000 0.926397 -0.376548
vn 0.000000 0.926397 -0.376548
vn 0.000000 0.926397 -0.376548
vn 0.000000 0.310552 -0.950556
vn 0.000000 0.310552 -0.950556
vn 0.000000 0.310552 -0.950556
vn 0.877912 0.389895 -0.277944
vn 0.877912 0.389895 -0.277944
vn 0.877912 0.389895 -0.277944
vn 0.000000 -0.246957 0.969027
vn 0.000000 -0.246957 0.969027
vn 0.000000 -0.246957 0.969027
vn 0.000000 -0.246957 0.969027
vn 0.000000 -0.246957 0.969027
vn 0.000000 -0.246957 0.969027
vn -0.865400 0.393557 -0.310156
vn -0.865400 0.393557 -0.310156
vn -0.865400 0.393557 -0.310156
vn -0.832092 0.488082 -0.263438
vn -0.832092 0.488082 -0.263438
vn -0.832092 0.488082 -0.263438
vn -0.968367 0.249529 0.000000
vn -0.968367 0.249529 0.000000
vn -0.968367 0.249529 0.000000
vn -0.968367 0.249529 0.000000
vn -0.968367 0.249529 0.000000
vn -0.968367 0.249529 0.000000
vn 0.000000 1.000000 0.000000
vn 0.000000 1.000000 0.000000
vn 0.000000 1.000000 0.000000
vn 0.000000 -1.000000 0.000000
vn 0.000000 -1.000000 0.000000
vn 0.000000 -1.000000 0.000000
vn 0.000000 -1.000000 0.000000
vn 0.000000 -1.000000 0.000000
vn 0.000000 -1.000000 0.000000
s off
g MortarBody:sci_fi_turret_4
usemtl MortarBody:lambert3SG
f 5/1/1 6/2/2 2/3/3
f 2/3/4 1/4/5 5/1/6
f 4/5/7 25/6/8 26/7/9
f 26/7/10 3/9/11 4/5/12
f 1/4/13 2/3/14 7/8/15
f 7/8/16 3/9/17 1/4/18
f 23/10/19 25/11/20 4/12/21
f 4/12/22 6/13/23 23/10/24
f 2/3/25 6/13/26 4/12/27
f 4/12/28 7/8/29 2/3/30
f 5/14/31 1/4/32 3/9/33
f 8/15/34 9/16/35 13/17/36
f 13/17/37 12/18/38 8/15/39
f 9/16/40 11/19/41 15/20/42
f 15/20/43 13/17/44 9/16/45
f 11/19/46 10/21/47 14/22/48
f 14/22/49 15/20/50 11/19/51
f 10/21/52 8/23/53 12/24/54
f 12/24/55 14/22/56 10/21/57
f 16/25/58 18/26/59 19/27/60
f 19/27/61 17/28/62 16/25/63
f 20/29/64 17/32/65 22/30/66
f 22/30/67 21/31/68 20/29/69
f 17/32/70 20/29/71 16/25/72
f 17/32/73 19/33/74 22/30/75
f 19/27/76 18/26/77 21/34/78
f 21/34/79 22/35/80 19/27/81
f 18/36/82 16/37/83 20/29/84
f 20/29/85 21/31/86 18/36/87
f 24/38/88 5/14/89 3/9/90
f 3/9/91 26/39/92 24/38/93
f 3/9/94 7/8/95 4/5/96
f 24/40/97 23/41/98 6/2/99
f 6/2/100 5/1/101 24/40/102
f 28/42/103 27/43/104 30/44/105
f 30/44/106 29/45/107 28/42/108
f 32/46/109 31/47/110 26/48/111
f 26/48/112 25/49/113 32/46/114
f 27/43/115 31/47/116 33/50/117
f 33/50/118 30/44/119 27/43/120
f 23/51/121 29/52/122 32/53/123
f 32/53/124 25/54/125 23/51/126
f 30/44/127 33/50/128 32/53/129
f 32/53/130 29/52/131 30/44/132
f 31/47/133 27/43/134 28/55/135
f 34/57/136 37/58/137 36/59/138
f 36/59/139 35/60/140 34/57/141
f 35/60/142 36/59/143 39/61/144
f 39/61/145 38/62/146 35/60/147
f 38/62/148 39/61/149 41/63/150
f 41/63/151 40/64/152 38/62/153
f 40/64/154 41/63/155 37/65/156
f 37/65/157 34/66/158 40/64/159
f 42/67/160 46/73/161 44/68/162
f 44/68/163 43/69/164 42/67/165
f 45/70/166 48/71/167 47/72/168
f 47/72/169 46/73/170 45/70/171
f 42/67/172 45/70/173 46/73/174
f 47/72/175 44/74/176 46/73/177
f 44/68/178 47/75/179 48/76/180
f 48/76/181 43/69/182 44/68/183
f 43/77/184 48/71/185 45/70/186
f 45/70/187 42/78/188 43/77/189
f 24/79/190 26/80/191 31/56/192
f 31/56/193 28/55/194 24/79/195
f 32/46/196 33/50/197 31/47/198
f 24/81/199 28/42/200 29/45/201
f 29/45/202 23/82/203 24/81/204
